<svg width="20" height="20" viewBox="0 0 20 20" fill="none" xmlns="http://www.w3.org/2000/svg">
<path fill-rule="evenodd" clip-rule="evenodd" d="M8.33335 15C4.65145 15 1.66669 12.0152 1.66669 8.33329C1.66669 4.65139 4.65145 1.66663 8.33335 1.66663C12.0153 1.66663 15 4.65139 15 8.33329C15 9.87391 14.4774 11.2925 13.5999 12.4214L18.0892 16.9108L16.9107 18.0893L12.4213 13.5999C11.2924 14.4774 9.87392 15 8.33335 15ZM13.3333 8.33333C13.3333 11.0948 11.0948 13.3333 8.33333 13.3333C5.57191 13.3333 3.33333 11.0948 3.33333 8.33333C3.33333 5.57191 5.57191 3.33333 8.33333 3.33333C11.0948 3.33333 13.3333 5.57191 13.3333 8.33333Z" fill="#9264F4"/>
</svg>
