<svg width="43" height="44" viewBox="0 0 43 44" fill="none" xmlns="http://www.w3.org/2000/svg">
<g filter="url(#filter0_d_260_144)">
<path d="M37.4958 19.5268H34.7772C34.725 19.5268 34.675 19.5061 34.6382 19.4692C34.6013 19.4324 34.5806 19.3824 34.5806 19.3302V11.7386C34.5806 10.7256 34.1782 9.75415 33.4619 9.03787C32.7456 8.32159 31.7742 7.91919 30.7612 7.91919H23.1696C23.1174 7.91919 23.0674 7.89848 23.0306 7.86162C22.9937 7.82475 22.973 7.77475 22.973 7.72262V5.00402C22.973 2.33653 20.8598 0.103464 18.1923 0.0572697C17.546 0.0459158 16.904 0.163383 16.3036 0.402818C15.7032 0.642252 15.1565 0.998859 14.6953 1.45183C14.2342 1.90481 13.8679 2.44507 13.6178 3.04112C13.3678 3.63716 13.2389 4.27704 13.2387 4.92342V7.72262C13.2387 7.77475 13.218 7.82475 13.1811 7.86162C13.1443 7.89848 13.0943 7.91919 13.0421 7.91919H5.4505C4.41868 7.9223 3.43 8.33357 2.70039 9.06318C1.97078 9.79279 1.55951 10.7815 1.5564 11.8133V18.7307C1.5564 18.7828 1.57711 18.8328 1.61397 18.8697C1.65084 18.9065 1.70083 18.9273 1.75297 18.9273H4.39785C7.28452 18.9273 9.67386 21.4316 9.71416 24.3183C9.75544 27.2541 7.40345 29.9353 4.47648 29.9353H1.75297C1.70083 29.9353 1.65084 29.956 1.61397 29.9929C1.57711 30.0298 1.5564 30.0798 1.5564 30.1319V37.0493C1.55951 38.0811 1.97078 39.0698 2.70039 39.7994C3.43 40.529 4.41868 40.9403 5.4505 40.9434H12.3679C12.42 40.9434 12.47 40.9227 12.5069 40.8858C12.5438 40.8489 12.5645 40.7989 12.5645 40.7468V38.6897C12.5645 35.7136 14.997 33.1512 17.9702 33.0815C20.9286 33.0127 23.5725 35.0777 23.5725 38.0233V40.7468C23.5725 40.7989 23.5932 40.8489 23.6301 40.8858C23.667 40.9227 23.717 40.9434 23.7691 40.9434H30.7612C31.7742 40.9434 32.7456 40.541 33.4619 39.8247C34.1782 39.1084 34.5806 38.1369 34.5806 37.124V29.4576C34.5806 29.4055 34.6013 29.3555 34.6382 29.3187C34.675 29.2818 34.725 29.2611 34.7772 29.2611H37.5764C40.292 29.2611 42.4435 27.0329 42.4435 24.3074C42.4435 21.582 40.1632 19.5268 37.4958 19.5268Z" fill="white"/>
</g>
<defs>
<filter id="filter0_d_260_144" x="0.556396" y="0.0565186" width="41.8871" height="43.8868" filterUnits="userSpaceOnUse" color-interpolation-filters="sRGB">
<feFlood flood-opacity="0" result="BackgroundImageFix"/>
<feColorMatrix in="SourceAlpha" type="matrix" values="0 0 0 0 0 0 0 0 0 0 0 0 0 0 0 0 0 0 127 0" result="hardAlpha"/>
<feOffset dx="-1" dy="3"/>
<feComposite in2="hardAlpha" operator="out"/>
<feColorMatrix type="matrix" values="0 0 0 0 0.303725 0 0 0 0 0.493401 0 0 0 0 0.718094 0 0 0 1 0"/>
<feBlend mode="normal" in2="BackgroundImageFix" result="effect1_dropShadow_260_144"/>
<feBlend mode="normal" in="SourceGraphic" in2="effect1_dropShadow_260_144" result="shape"/>
</filter>
</defs>
</svg>
